<svg width="176" height="47" viewBox="0 0 176 47" fill="none" xmlns="http://www.w3.org/2000/svg">
<rect width="176" height="47" fill="#E5E5E5"/>
<rect width="768" height="6855" transform="translate(-31 -34)" fill="#2A2C2F"/>
<path d="M7.76534 21.1342L10.4107 19.9513L14.592 14.2735L15.872 13.8003L17.2374 19.557L15.4454 19.7936L14.08 17.4279L13.056 21.1342H17.5787L22.272 22.2383L24.1494 21.1342L27.3067 24.1309L28.672 18.6107L30.8907 20.6611L32.256 18.9262L34.4747 18.3742L37.7174 15.6141L38.2294 14.2735L40.8747 14.6678L41.9841 16.0084L40.0214 19.7936L44.8854 17.5067V16.4027L46.7627 16.0084L48.8107 17.901L50.8587 15.6141V14.0369L54.1867 11.9077L55.5521 10.094H57.6854L61.4401 3.0755L64.6828 0L65.8774 1.7349L64.0001 3.94295L64.6828 5.36242L66.4748 5.67785L67.9254 11.5134V16.4027L70.4854 19.6359L71.7654 24.1309L67.3281 21.5285L65.3654 14.0369L64.1707 14.2735L64.0001 19.3205L60.7574 24.1309L59.8187 31.4648L62.0374 31.9379L62.9761 30.9128L65.1094 33.1208L66.7307 39.745L66.5601 44.0034H64.5121L63.7441 38.0101L62.2934 39.8238L59.1361 39.193L56.5761 37.2215L53.6747 38.1678L53.8454 42.4262L51.5414 42.9782L48.1281 45.344L44.0321 44.8708L42.4107 44.0034L39.8507 44.3977L40.7041 45.344L38.6561 46.448L37.0347 45.7383L33.9627 47L29.2694 44.8708L27.4774 41.0856L25.9414 41.2433L24.1494 39.9027L24.064 38.8775L18.3467 38.3255L17.408 41.1644L13.824 39.6661L12.032 36.906H8.19201L7.76534 41.3222L5.54667 41.953L4.43734 45.9748L3.584 45.2651L0 36.8272L4.26667 34.9346L3.584 31.2282L2.90134 27.443L4.77867 24.9983L4.18134 23.5L6.74134 20.9765L7.76534 21.1342ZM64.5121 30.4396L68.4374 35.802L69.7174 35.3289L68.0961 33.1208L64.5121 29.651V30.4396ZM24.4054 19.557V17.9799L27.392 16.0084L29.952 14.8255H26.9654L24.32 16.245L22.6987 17.5856V19.557H24.4054Z" fill="white"/>
<path d="M89.8314 37.0581H94.5546V32.3745H97.171C101.138 32.3745 103.797 30.2561 103.797 26.859C103.797 23.5004 101.206 21.2819 97.3409 21.2819H89.8314V37.0581ZM94.5546 29.0467V24.7021H96.2196C97.8761 24.7021 98.87 25.5032 98.87 26.859C98.87 28.2071 97.8761 29.0467 96.2196 29.0467H94.5546Z" fill="white"/>
<path d="M111.604 37.2738C115.851 37.2738 118.366 34.8088 118.366 31.1728C118.366 27.5369 115.851 25.0719 111.604 25.0719C107.356 25.0719 104.842 27.5369 104.842 31.1728C104.842 34.8088 107.356 37.2738 111.604 37.2738ZM111.638 34.1309C110.381 34.1309 109.633 32.9985 109.633 31.142C109.633 29.2855 110.381 28.1532 111.638 28.1532C112.827 28.1532 113.575 29.2855 113.575 31.142C113.575 32.9985 112.827 34.1309 111.638 34.1309Z" fill="white"/>
<path d="M126.555 37.2738C130.42 37.2738 132.79 35.2632 132.841 32.128H128.492C128.39 33.3682 127.651 34.0384 126.623 34.0384C125.391 34.0384 124.584 33.0832 124.584 31.142C124.584 29.2008 125.391 28.2456 126.623 28.2456C127.659 28.2456 128.364 28.9158 128.492 30.156H132.841C132.816 27.0747 130.395 25.0719 126.555 25.0719C122.308 25.0719 119.793 27.5369 119.793 31.1728C119.793 34.8088 122.308 37.2738 126.555 37.2738Z" fill="white"/>
<path d="M141.062 37.2738C144.928 37.2738 147.298 35.2632 147.349 32.128H142.999C142.897 33.3682 142.158 34.0384 141.13 34.0384C139.899 34.0384 139.092 33.0832 139.092 31.142C139.092 29.2008 139.899 28.2456 141.13 28.2456C142.167 28.2456 142.872 28.9158 142.999 30.156H147.349C147.323 27.0747 144.902 25.0719 141.062 25.0719C136.815 25.0719 134.3 27.5369 134.3 31.1728C134.3 34.8088 136.815 37.2738 141.062 37.2738Z" fill="white"/>
<path d="M153.701 31.635V25.2259H149.283V37.0581H153.701L157.337 30.6182V37.0581H161.754V25.2259H157.337L153.701 31.635Z" fill="white"/>
<path d="M171.651 37.0581H176V25.2259H169.884C166.12 25.2259 163.742 26.9514 163.767 29.3549C163.75 30.7029 164.642 31.8199 166.205 32.4824L163.631 37.0581H167.947L170.147 33.1449H171.651V37.0581ZM171.651 30.5874H169.986C168.737 30.5874 168.159 30.0327 168.185 29.5089C168.159 29.0159 168.703 28.3997 169.884 28.3997H171.651V30.5874Z" fill="white"/>
</svg>
